<svg xmlns="http://www.w3.org/2000/svg" xmlns:xlink="http://www.w3.org/1999/xlink" width="38.114" height="38.115" viewBox="0 0 38.114 38.115"><defs><style>.a{fill:none;}.b{clip-path:url(#a);}.c{clip-path:url(#b);}.d{fill:#ca2127;}.e{fill:#f6dd26;}.f{clip-path:url(#c);}.g{opacity:0.5;fill:url(#d);}.h{fill:url(#e);}.i{fill:#fff;}.j,.k{opacity:0.2;}.j{mix-blend-mode:screen;isolation:isolate;fill:url(#f);}.l{fill:#f7f7f7;}.m{fill:#efefef;}.n{fill:#e6e6e6;}.o{fill:#dedede;}.p{fill:#d6d6d6;}.q{fill:#cecece;}.r{fill:#c5c5c5;}.s{fill:#bdbdbd;}.t{fill:#b5b5b5;}.u{fill:#adadad;}.v{fill:#a5a5a5;}.w{fill:#9c9c9c;}.x{fill:#949494;}.y{fill:#8c8c8c;}.z{fill:#848484;}.aa{fill:#7b7b7b;}.ab{fill:#737373;}.ac{fill:#6b6b6b;}.ad{fill:#636363;}.ae{fill:#5a5a5a;}.af{fill:#525252;}.ag{fill:#4a4a4a;}.ah{fill:#424242;}.ai{fill:#3a3a3a;}.aj{fill:#313131;}.ak{fill:#292929;}.al{fill:#212121;}.am{fill:#191919;}.an{fill:#101010;}.ao{fill:#080808;}.ap{stroke:#231f20;stroke-width:0.16px;fill:url(#g);}.aq{clip-path:url(#h);}.ar{clip-path:url(#i);}.as{clip-path:url(#j);}</style><clipPath id="a"><path class="a" d="M894.286,499.142a16.6,16.6,0,1,1-16.6-16.6A16.6,16.6,0,0,1,894.286,499.142Z" transform="translate(-861.079 -482.539)"/></clipPath><clipPath id="b"><rect class="a" width="54.8" height="31.966"/></clipPath><clipPath id="c"><rect class="a" width="25.232" height="14.719"/></clipPath><linearGradient id="d" x1="0.499" y1="0.994" x2="0.5" y2="0.23" gradientUnits="objectBoundingBox"><stop offset="0" stop-color="#fff" stop-opacity="0"/><stop offset="1" stop-color="#fff"/></linearGradient><linearGradient id="e" x1="0.5" y1="0.344" x2="0.5" y2="0.946" gradientUnits="objectBoundingBox"><stop offset="0.006" stop-color="#dee2e5"/><stop offset="0.253" stop-color="#fffce4"/><stop offset="0.395" stop-color="#efead7"/><stop offset="0.596" stop-color="#d5ccc0"/><stop offset="0.787" stop-color="#ededee"/><stop offset="1" stop-color="#d7d4ba"/></linearGradient><radialGradient id="f" cx="0.5" cy="0.5" r="0.497" gradientTransform="matrix(0.945, 0.342, -0.346, 0.944, -0.699, -0.506)" gradientUnits="objectBoundingBox"><stop offset="0" stop-color="#fff"/><stop offset="0.085" stop-color="#f6f6f6"/><stop offset="0.22" stop-color="#e0e0e0"/><stop offset="0.386" stop-color="#bbb"/><stop offset="0.578" stop-color="#888"/><stop offset="0.789" stop-color="#474747"/><stop offset="1"/></radialGradient><radialGradient id="g" cx="0.5" cy="0.5" r="0.562" gradientTransform="translate(0)" gradientUnits="objectBoundingBox"><stop offset="0" stop-color="#fff"/><stop offset="0.692" stop-color="#fafafa"/><stop offset="1" stop-color="#ccc"/></radialGradient><clipPath id="h"><path class="a" d="M894.285,499.634a16.6,16.6,0,1,1-16.6-16.6A16.6,16.6,0,0,1,894.285,499.634Z" transform="translate(-861.078 -483.03)"/></clipPath><clipPath id="i"><rect class="a" width="54.8" height="31.965"/></clipPath><clipPath id="j"><rect class="a" width="25.232" height="14.72"/></clipPath></defs><g transform="translate(0.833 0.778)"><g transform="translate(1.712 1.363)"><g class="b"><g transform="translate(-0.236 2.739)"><g class="c"><rect class="d" width="54.8" height="31.966"/><path class="e" d="M871.211,505.87l1.031-3.191-2.707-1.977,3.353-.007,1.044-3.185,1.042,3.185,3.352.009-2.709,1.975,1.027,3.191-2.715-1.966Z" transform="translate(-865.938 -494.3)"/><path class="e" d="M897.061,522.161l1.131.454.786-.932L898.9,522.9l1.129.46-1.182.3-.088,1.215-.648-1.032-1.183.291.781-.936Z" transform="translate(-882.443 -508.866)"/><path class="e" d="M907.9,503.972l-1.2-.209-.575,1.075-.172-1.206-1.2-.216,1.094-.536-.167-1.208.849.876,1.1-.531-.571,1.077Z" transform="translate(-887.163 -496.808)"/><path class="e" d="M905.336,516.594l.374-1.16-.985-.719,1.219,0,.38-1.158.379,1.159,1.219,0-.985.718.374,1.16-.987-.714Z" transform="translate(-887.144 -503.967)"/><path class="e" d="M897.054,493.972l1.106.512.834-.89-.146,1.211,1.1.518-1.2.234-.152,1.21-.592-1.066-1.2.23.83-.893Z" transform="translate(-882.376 -491.94)"/></g></g><g transform="translate(7.205 -11.545)"><g class="f"><rect class="d" width="25.232" height="14.719"/><path class="e" d="M884.146,461.057l.474-1.469-1.246-.91,1.543,0,.481-1.466.479,1.467,1.544,0-1.247.909.473,1.469-1.25-.9Z" transform="translate(-881.718 -455.73)"/><path class="e" d="M896.049,468.559l.521.209.362-.429-.038.56.52.212-.544.137-.04.56-.3-.475-.545.134.36-.431Z" transform="translate(-889.318 -462.437)"/><path class="e" d="M901.041,460.184l-.553-.1-.265.495-.079-.556-.553-.1.5-.246-.077-.557.391.4.506-.244-.263.5Z" transform="translate(-891.491 -456.885)"/><path class="e" d="M899.858,466l.172-.535-.453-.331h.562l.175-.533.175.534h.561l-.453.331.172.535-.455-.329Z" transform="translate(-891.482 -460.181)"/><path class="e" d="M896.045,455.579l.509.236.384-.41-.067.558.508.239-.551.108-.07.557-.273-.491-.551.106.382-.411Z" transform="translate(-889.287 -454.644)"/></g></g></g></g><g transform="translate(0.645 0.8)"><path class="g" d="M895.8,496.554c0,4.858-5.626,8.8-12.566,8.8s-12.565-3.939-12.565-8.8,5.626-8.8,12.565-8.8S895.8,491.7,895.8,496.554Z" transform="translate(-865.79 -485.12)"/><path class="h" d="M858.392,504.25a17.635,17.635,0,0,0,6.539,13.722,20.978,20.978,0,0,1,0-27.447A17.635,17.635,0,0,0,858.392,504.25Zm28.8-13.724a20.975,20.975,0,0,1,0,27.447,17.669,17.669,0,0,0,0-27.447Z" transform="translate(-858.392 -486.789)"/><path class="i" d="M877.7,542.13a16.591,16.591,0,0,1-16.587-15.973c0,.112,0,.223,0,.336a16.591,16.591,0,1,0,33.181,0c0-.113,0-.224,0-.336A16.591,16.591,0,0,1,877.7,542.13Z" transform="translate(-860.031 -508.26)"/><path class="i" d="M877.7,482.348c9.051,0,16.408,7.05,16.587,15.7,0-.112,0-.224,0-.335a16.591,16.591,0,1,0-33.181,0c0,.112,0,.224,0,.335C861.294,489.4,868.651,482.348,877.7,482.348Z" transform="translate(-860.031 -481.122)"/></g><path class="j" d="M892.228,503.838a18.3,18.3,0,1,1-10.883-23.6A18.254,18.254,0,0,1,892.228,503.838Z" transform="translate(-856.77 -479.109)"/></g><g class="k"><path class="i" d="M892.789,496.209a19.057,19.057,0,1,1-19.056-19.058A19.056,19.056,0,0,1,892.789,496.209Z" transform="translate(-854.675 -477.151)"/><path class="l" d="M892.81,496.271a19.016,19.016,0,1,1-19.016-19.017A19.015,19.015,0,0,1,892.81,496.271Z" transform="translate(-854.737 -477.213)"/><path class="m" d="M892.831,496.333a18.975,18.975,0,1,1-18.975-18.976A18.974,18.974,0,0,1,892.831,496.333Z" transform="translate(-854.799 -477.275)"/><path class="n" d="M892.852,496.395a18.934,18.934,0,1,1-18.934-18.935A18.933,18.933,0,0,1,892.852,496.395Z" transform="translate(-854.861 -477.337)"/><path class="o" d="M892.874,496.458a18.893,18.893,0,1,1-18.893-18.894A18.892,18.892,0,0,1,892.874,496.458Z" transform="translate(-854.923 -477.4)"/><path class="p" d="M892.895,496.52a18.852,18.852,0,1,1-18.852-18.853A18.851,18.851,0,0,1,892.895,496.52Z" transform="translate(-854.985 -477.462)"/><path class="q" d="M892.916,496.582a18.811,18.811,0,1,1-18.811-18.812A18.81,18.81,0,0,1,892.916,496.582Z" transform="translate(-855.047 -477.524)"/><path class="r" d="M892.937,496.644a18.77,18.77,0,1,1-18.77-18.771A18.769,18.769,0,0,1,892.937,496.644Z" transform="translate(-855.109 -477.586)"/><path class="s" d="M892.958,496.706a18.73,18.73,0,1,1-18.729-18.73A18.729,18.729,0,0,1,892.958,496.706Z" transform="translate(-855.172 -477.648)"/><path class="t" d="M892.979,496.768a18.689,18.689,0,1,1-18.688-18.689A18.688,18.688,0,0,1,892.979,496.768Z" transform="translate(-855.234 -477.71)"/><path class="u" d="M893,496.83a18.648,18.648,0,1,1-18.647-18.648A18.647,18.647,0,0,1,893,496.83Z" transform="translate(-855.296 -477.772)"/><path class="v" d="M893.021,496.892a18.607,18.607,0,1,1-18.606-18.607A18.606,18.606,0,0,1,893.021,496.892Z" transform="translate(-855.358 -477.834)"/><path class="w" d="M893.043,496.955a18.566,18.566,0,1,1-18.565-18.566A18.565,18.565,0,0,1,893.043,496.955Z" transform="translate(-855.42 -477.897)"/><path class="x" d="M893.064,497.017a18.525,18.525,0,1,1-18.524-18.525A18.525,18.525,0,0,1,893.064,497.017Z" transform="translate(-855.482 -477.959)"/><path class="y" d="M893.085,497.079A18.484,18.484,0,1,1,874.6,478.6,18.484,18.484,0,0,1,893.085,497.079Z" transform="translate(-855.544 -478.021)"/><path class="z" d="M893.106,497.141A18.443,18.443,0,1,1,874.664,478.7,18.443,18.443,0,0,1,893.106,497.141Z" transform="translate(-855.606 -478.083)"/><path class="aa" d="M893.127,497.2a18.4,18.4,0,1,1-18.4-18.4A18.4,18.4,0,0,1,893.127,497.2Z" transform="translate(-855.668 -478.145)"/><path class="ab" d="M893.149,497.265a18.361,18.361,0,1,1-18.36-18.361A18.361,18.361,0,0,1,893.149,497.265Z" transform="translate(-855.731 -478.207)"/><path class="ac" d="M893.169,497.327a18.32,18.32,0,1,1-18.319-18.32A18.319,18.319,0,0,1,893.169,497.327Z" transform="translate(-855.792 -478.269)"/><path class="ad" d="M893.191,497.39a18.279,18.279,0,1,1-18.278-18.28A18.279,18.279,0,0,1,893.191,497.39Z" transform="translate(-855.855 -478.331)"/><path class="ae" d="M893.211,497.452a18.238,18.238,0,1,1-18.237-18.239A18.238,18.238,0,0,1,893.211,497.452Z" transform="translate(-855.916 -478.394)"/><path class="af" d="M893.233,497.514a18.2,18.2,0,1,1-18.2-18.2A18.2,18.2,0,0,1,893.233,497.514Z" transform="translate(-855.979 -478.456)"/><path class="ag" d="M893.254,497.576A18.156,18.156,0,1,1,875.1,479.42,18.156,18.156,0,0,1,893.254,497.576Z" transform="translate(-856.04 -478.518)"/><path class="ah" d="M893.275,497.638a18.115,18.115,0,1,1-18.115-18.115A18.116,18.116,0,0,1,893.275,497.638Z" transform="translate(-856.102 -478.58)"/><path class="ai" d="M893.3,497.7a18.074,18.074,0,1,1-18.074-18.074A18.075,18.075,0,0,1,893.3,497.7Z" transform="translate(-856.165 -478.643)"/><path class="aj" d="M893.318,497.763a18.033,18.033,0,1,1-18.033-18.034A18.034,18.034,0,0,1,893.318,497.763Z" transform="translate(-856.227 -478.704)"/><path class="ak" d="M893.339,497.825a17.992,17.992,0,1,1-17.992-17.992A17.993,17.993,0,0,1,893.339,497.825Z" transform="translate(-856.289 -478.767)"/><path class="al" d="M893.36,497.887a17.951,17.951,0,1,1-17.951-17.952A17.952,17.952,0,0,1,893.36,497.887Z" transform="translate(-856.351 -478.829)"/><path class="am" d="M893.381,497.949a17.911,17.911,0,1,1-17.91-17.91A17.912,17.912,0,0,1,893.381,497.949Z" transform="translate(-856.414 -478.891)"/><path class="an" d="M893.4,498.011a17.87,17.87,0,1,1-17.869-17.869A17.871,17.871,0,0,1,893.4,498.011Z" transform="translate(-856.476 -478.953)"/><path class="ao" d="M893.423,498.073A17.829,17.829,0,1,1,875.6,480.245,17.83,17.83,0,0,1,893.423,498.073Z" transform="translate(-856.538 -479.015)"/><path d="M893.444,498.135a17.788,17.788,0,1,1-17.787-17.788A17.789,17.789,0,0,1,893.444,498.135Z" transform="translate(-856.6 -479.077)"/><path class="ap" d="M893.444,498.135a17.788,17.788,0,1,1-17.787-17.788A17.789,17.789,0,0,1,893.444,498.135Z" transform="translate(-856.6 -479.077)"/></g><g transform="translate(1.477 1.773)"><g transform="translate(1.067 0.563)"><g class="aq"><g transform="translate(-0.236 2.739)"><g class="ar"><rect class="d" width="54.8" height="31.965"/><path class="e" d="M871.21,506.361l1.031-3.19-2.707-1.977,3.353-.007L873.931,498l1.042,3.186,3.353.01-2.709,1.975,1.027,3.19-2.715-1.965Z" transform="translate(-865.938 -494.791)"/><path class="e" d="M897.06,522.652l1.132.454.786-.932-.083,1.216,1.129.46-1.182.3-.089,1.215-.648-1.032-1.183.291.781-.935Z" transform="translate(-882.442 -509.357)"/><path class="e" d="M907.9,504.464l-1.2-.209-.575,1.075-.171-1.206-1.2-.216,1.094-.536-.167-1.208.849.876,1.1-.531-.571,1.077Z" transform="translate(-887.163 -497.299)"/><path class="e" d="M905.336,517.084l.374-1.16-.984-.719,1.219,0,.38-1.158.379,1.159,1.219,0-.985.719.374,1.16-.987-.714Z" transform="translate(-887.144 -504.458)"/><path class="e" d="M897.053,494.463l1.106.513.834-.89-.146,1.211,1.1.519-1.2.234-.152,1.21-.593-1.066-1.2.23.83-.893Z" transform="translate(-882.375 -492.432)"/></g></g><g transform="translate(7.205 -11.545)"><g class="as"><rect class="d" width="25.232" height="14.72"/><path class="e" d="M884.146,461.549l.474-1.469-1.246-.91,1.544,0,.481-1.466.479,1.467,1.543,0-1.247.91.473,1.469-1.25-.905Z" transform="translate(-881.718 -456.222)"/><path class="e" d="M896.048,469.05l.521.209.362-.429-.039.56.52.212-.544.137-.04.56-.3-.475-.545.134.36-.431Z" transform="translate(-889.317 -462.928)"/><path class="e" d="M901.04,460.675l-.553-.1-.265.495-.079-.556-.553-.1.5-.246-.077-.557.391.4.505-.244-.263.5Z" transform="translate(-891.49 -457.376)"/><path class="e" d="M899.857,466.486l.172-.535-.453-.331h.562l.175-.533.175.534h.561l-.453.33.172.535-.454-.329Z" transform="translate(-891.482 -460.672)"/><path class="e" d="M896.045,456.071l.509.236.384-.41-.067.557.508.239-.551.108-.07.557-.273-.491-.551.106.382-.411Z" transform="translate(-889.287 -455.135)"/></g></g></g></g><path class="h" d="M858.392,504.741a17.636,17.636,0,0,0,6.539,13.723,20.976,20.976,0,0,1,0-27.446A17.633,17.633,0,0,0,858.392,504.741Zm28.8-13.723a20.977,20.977,0,0,1,0,27.446,17.669,17.669,0,0,0,0-27.446Z" transform="translate(-858.392 -487.28)"/><path class="i" d="M877.7,542.621a16.591,16.591,0,0,1-16.587-15.973c0,.112,0,.223,0,.336a16.591,16.591,0,1,0,33.181,0c0-.112,0-.224,0-.336A16.591,16.591,0,0,1,877.7,542.621Z" transform="translate(-860.031 -508.751)"/><path class="i" d="M877.7,482.839c9.05,0,16.407,7.051,16.586,15.7,0-.112,0-.224,0-.335a16.591,16.591,0,1,0-33.181,0c0,.112,0,.224,0,.335C861.294,489.89,868.651,482.839,877.7,482.839Z" transform="translate(-860.031 -481.613)"/></g></svg>