<svg xmlns="http://www.w3.org/2000/svg" width="169.816" height="169.816" viewBox="0 0 169.816 169.816"><defs><style>.a{fill:#fff;}.b{fill:#d1000e;}</style></defs><g transform="translate(-166.465 -118.4)"><g transform="translate(192.312 142.115)"><path class="a" d="M233.321,247.219c-35.046,0-59.522-25.04-59.522-60.89,0-35.462,25.033-61.2,59.522-61.2,8.339,0,15.659,3.489,21.78,10.376a10.35,10.35,0,0,1,3.369-.666A23.478,23.478,0,0,1,275,141.6c11.507,11.288,17.844,27.176,17.844,44.731C292.847,222.178,268.367,247.219,233.321,247.219Zm0-113.529c-29.53,0-50.962,22.14-50.962,52.639,0,30.81,20.956,52.329,50.962,52.329s50.965-21.52,50.965-52.329c0-15.239-5.424-28.956-15.274-38.62a14.98,14.98,0,0,0-10.541-4.314c-.1.025-.687.24-1.078.381-3.693,1.332-6.3.825-7.764-1.5C244.916,136.5,239.581,133.69,233.321,133.69Z" transform="translate(-173.799 -125.129)"/><path class="a" d="M220.288,215.987c-24.72,0-41.326-17.156-41.326-42.694,0-25.319,16.994-43,41.326-43,6.326,0,9.942,6.143,12.846,11.077a43.5,43.5,0,0,0,3.14,4.856c.567-.522,1.2-1.167,1.663-1.635,2.294-2.33,7.073-7.169,11.3-3.031,7.986,7.831,12.384,19.1,12.384,31.733C261.618,198.831,245.008,215.987,220.288,215.987Zm0-77.137c-19.292,0-32.766,14.164-32.766,34.443,0,21.054,12.554,34.133,32.766,34.133s32.769-13.079,32.769-34.133c0-9.294-2.83-17.6-8.021-23.7-.352.345-.7.7-1,1-2.7,2.738-6.4,6.488-10.654,4.226-3.281-1.73-5.392-5.318-7.623-9.114C224.345,143.315,221.723,138.85,220.288,138.85Z" transform="translate(-160.766 -112.093)"/><path class="b" d="M218.9,175.853a16.243,16.243,0,0,0,2.46-4.169c2.974-7.024-2.132-18.379-2.132-18.379a13.892,13.892,0,0,1-7.711,9.251c-12.409-8.966-9.815-27.345-9.815-27.345-14.968,9.237-17.167,20.54-16.191,28.776.592,8.6,4.553,17.731,18.753,17.731,7.017,0,11.521-2.238,14.369-5.533l.014,0C218.737,176.083,218.814,175.963,218.9,175.853Z" transform="translate(-144.74 -99.679)"/></g><path class="a" d="M251.373,132.892a70.416,70.416,0,1,1-70.416,70.416,70.5,70.5,0,0,1,70.416-70.416m0-14.492a84.908,84.908,0,1,0,84.908,84.908A84.906,84.906,0,0,0,251.373,118.4Z" transform="translate(0 0)"/></g></svg>