<svg xmlns="http://www.w3.org/2000/svg" xmlns:xlink="http://www.w3.org/1999/xlink" width="36.578" height="36.806" viewBox="0 0 36.578 36.806"><defs><style>.a{fill:none;}.b{clip-path:url(#a);}.c{clip-path:url(#b);}.d{fill:#fff;}.e{fill:#bd1f37;}.f{fill:#2d2f77;}.g{fill:url(#c);}.h{opacity:0.2;mix-blend-mode:screen;isolation:isolate;fill:url(#d);}</style><clipPath id="a"><path class="a" d="M890.945,381.124a16.6,16.6,0,1,1-16.6-16.6A16.6,16.6,0,0,1,890.945,381.124Z" transform="translate(-857.738 -364.52)"/></clipPath><clipPath id="b"><rect class="a" width="60.371" height="35.217"/></clipPath><linearGradient id="c" x1="0.5" y1="0.344" x2="0.5" y2="0.946" gradientUnits="objectBoundingBox"><stop offset="0.006" stop-color="#dee2e5"/><stop offset="0.253" stop-color="#fffce4"/><stop offset="0.395" stop-color="#efead7"/><stop offset="0.596" stop-color="#d5ccc0"/><stop offset="0.787" stop-color="#ededee"/><stop offset="1" stop-color="#d7d4ba"/></linearGradient><radialGradient id="d" cx="0.5" cy="0.5" r="0.497" gradientTransform="matrix(0.945, 0.342, -0.346, 0.944, -0.691, -0.351)" gradientUnits="objectBoundingBox"><stop offset="0" stop-color="#fff"/><stop offset="0.085" stop-color="#f6f6f6"/><stop offset="0.22" stop-color="#e0e0e0"/><stop offset="0.386" stop-color="#bbb"/><stop offset="0.578" stop-color="#888"/><stop offset="0.789" stop-color="#474747"/><stop offset="1"/></radialGradient></defs><g transform="translate(1.641 1.387)"><g class="b"><g transform="translate(-9.491 -1.005)"><g class="c"><rect class="d" width="60.371" height="35.217"/><path class="e" d="M929.244,374.723l19.948-11.166V361.99h-1.378l-22.744,12.733Z" transform="translate(-888.82 -361.99)"/><path class="e" d="M933.2,420.351l20.891,11.688V429.7l-16.717-9.351Z" transform="translate(-893.72 -397.158)"/><path class="e" d="M833.855,365.192l17.869,10.049H855.9l-22.044-12.391Z" transform="translate(-833.855 -362.509)"/><path class="e" d="M854.955,420.351l-21.1,11.82v.2h3.809l21.466-12.024Z" transform="translate(-833.855 -397.158)"/><path class="f" d="M943.325,361.99H922.187v11.84Z" transform="translate(-887.083 -361.99)"/><path class="f" d="M866.774,361.99H845.721l21.053,11.84Z" transform="translate(-841.005 -361.99)"/><path class="f" d="M964.027,381.781V373.7l-14.339,8.079Z" transform="translate(-903.655 -369.048)"/><path class="f" d="M964.027,428.341v-7.99H949.688Z" transform="translate(-903.655 -397.158)"/><path class="f" d="M848.728,433.731h19.858V422.6Z" transform="translate(-842.817 -398.514)"/><path class="f" d="M922.187,433.731h19.92l-19.92-11.13Z" transform="translate(-887.083 -398.514)"/><path class="f" d="M833.855,420.351v8.35l14.838-8.35Z" transform="translate(-833.855 -397.158)"/><path class="f" d="M833.855,381.348h14.838l-14.838-8.364Z" transform="translate(-833.855 -368.615)"/><path class="e" d="M861.49,361.99v14.826H833.855v6.275H861.49v14.116h5.6V383.092h27.135v-6.275H867.092V361.99Z" transform="translate(-833.855 -361.99)"/></g></g></g></g><g transform="translate(0.573 0.823)"><path class="g" d="M855.05,386.231a17.636,17.636,0,0,0,6.539,13.723,20.978,20.978,0,0,1,0-27.446A17.636,17.636,0,0,0,855.05,386.231Zm28.8-13.724a20.976,20.976,0,0,1,0,27.446,17.67,17.67,0,0,0,0-27.446Z" transform="translate(-855.05 -368.769)"/><path class="d" d="M874.361,424.111a16.591,16.591,0,0,1-16.587-15.972c0,.111,0,.223,0,.335a16.591,16.591,0,1,0,33.181,0c0-.112,0-.224,0-.335A16.591,16.591,0,0,1,874.361,424.111Z" transform="translate(-856.689 -390.241)"/><path class="d" d="M874.361,364.328c9.051,0,16.408,7.051,16.587,15.7,0-.111,0-.223,0-.335a16.591,16.591,0,1,0-33.181,0c0,.112,0,.224,0,.335C857.953,371.379,865.31,364.328,874.361,364.328Z" transform="translate(-856.689 -363.102)"/></g><path class="h" d="M889.066,385.759a18.3,18.3,0,1,1-10.883-23.6A18.253,18.253,0,0,1,889.066,385.759Z" transform="translate(-853.608 -361.03)"/></svg>